<svg id="Layer_1" data-name="Layer 1" xmlns="http://www.w3.org/2000/svg" xmlns:xlink="http://www.w3.org/1999/xlink" viewBox="0 0 48.23 82.11"><defs><style>.cls-1{fill:url(#linear-gradient);}.cls-2{fill:url(#linear-gradient-2);}.cls-3{fill:url(#linear-gradient-3);}.cls-4{fill:#010101;}</style><linearGradient id="linear-gradient" x1="26.53" y1="31.56" x2="66.29" y2="31.56" gradientUnits="userSpaceOnUse"><stop offset="0" stop-color="#205f5b"/><stop offset="0.37" stop-color="#205c58"/><stop offset="0.63" stop-color="#205350"/><stop offset="0.87" stop-color="#1f4342"/><stop offset="1" stop-color="#1f3637"/></linearGradient><linearGradient id="linear-gradient-2" x1="4.81" y1="65.72" x2="43.95" y2="65.72" gradientUnits="userSpaceOnUse"><stop offset="0" stop-color="#ba5418"/><stop offset="0.25" stop-color="#b75317"/><stop offset="0.43" stop-color="#ad4e15"/><stop offset="0.6" stop-color="#9d4712"/><stop offset="0.75" stop-color="#863d0c"/><stop offset="0.9" stop-color="#693006"/><stop offset="1" stop-color="#4f2400"/></linearGradient><linearGradient id="linear-gradient-3" x1="3.36" y1="47.19" x2="45.88" y2="47.19" gradientUnits="userSpaceOnUse"><stop offset="0" stop-color="#ba5418"/><stop offset="0.25" stop-color="#b75317"/><stop offset="0.44" stop-color="#ae4f15"/><stop offset="0.6" stop-color="#9e4712"/><stop offset="0.75" stop-color="#883d0d"/><stop offset="0.89" stop-color="#6b3106"/><stop offset="1" stop-color="#4f2400"/></linearGradient></defs><title>cactus</title><path class="cls-1" d="M28.72,48.77c-2-5.51-3-13.31-1.35-24,1.24-7.93,3.21-10.68,3.95-11.64A19.25,19.25,0,0,1,47.64,5.84a20.79,20.79,0,0,1,13.93,7.58c3.08,4,3.56,8,4.26,14.56,1.12,10.54,0,15.28-1.45,20.68C61.32,60,33,60.39,28.72,48.77Z" transform="translate(-21.88 -4.95)"/><polygon class="cls-2" points="39.58 80.83 9.44 80.83 4.81 50.62 43.95 50.62 39.58 80.83"/><rect class="cls-3" x="3.36" y="44.28" width="42.52" height="5.82"/><path class="cls-4" d="M42.71,5.23a18.67,18.67,0,0,0-9,4.23L32.4,10.64l-1-.8c-1.08-.84-1.54-1-2-.48S29,10.51,30,11.41l1,.9-1,1.64a32.82,32.82,0,0,0-3.7,11.82l-.15,1.49H24.68c-1.41,0-1.51,0-1.67.69-.23.9.41,1.36,1.87,1.36H26l-.07,2.74-.08,2.77L24.09,35c-1.77.18-2.21.41-2.21,1.29,0,.69.75.89,2.59.74l1.7-.15.33,2.92c.15,1.62.51,4.13.74,5.59L27.68,48H26.12a3.93,3.93,0,0,0-1.88.31c-.43.44-.43,7.16,0,7.59a1.84,1.84,0,0,0,1.11.31h.76l2,15.06c1.1,8.28,2.13,15.21,2.28,15.39.38.48,31.83.48,32.21,0,.16-.18,1.16-7.1,2.29-15.41l2-15.06h.77c1.3,0,1.41-.28,1.41-4.1,0-2.36-.11-3.59-.31-3.8a4,4,0,0,0-1.9-.31H65.31l.33-2a88.5,88.5,0,0,0,1.13-9.2V35.75l1.43-.08c1.06-.05,1.54-.2,1.75-.54.49-.77-.1-1.33-1.57-1.41l-1.28-.08L66.92,30a50.27,50.27,0,0,0-1.28-9.44c-.15-.3,0-.46.9-.64,1.25-.25,1.79-.9,1.36-1.56-.24-.36-.59-.44-1.67-.39l-1.39.08-.74-1.8-.72-1.79.8-.69c.84-.7,1-1.34.48-1.85s-.89-.38-1.77.26l-.74.56-.44-.64a22.69,22.69,0,0,0-5-4.54A21.88,21.88,0,0,0,42.71,5.23Zm3.36,15a.72.72,0,0,0,.9,0c.38-.26.43-.92.51-6.62.08-7,0-6.74,1.82-5.82,3.87,2,6,9,6.39,21.29.15,4.59.23,5.26.64,5.51a.72.72,0,0,0,.9,0c.38-.25.43-.77.41-4.87,0-9.28-1.57-16.49-4.34-20.62l-.84-1.26,1.33.52c5.8,2.28,9.67,8.25,10.8,16.72A76.22,76.22,0,0,1,63.3,47.44c-.12.57-.23.59-3.28.59H56.89l.31-3.41c.59-6.64.41-8.18-.92-7.74-.67.2-.7.31-1.05,5.9-.18,2.54-.39,4.74-.44,4.92s-1,.34-3.69.34H47.53l-.05-11.57c-.08-10.72-.1-11.62-.51-11.88a.75.75,0,0,0-.9,0c-.44.26-.46,1.16-.54,11.88L45.48,48H41.91c-3.18,0-3.59-.06-3.71-.47-.39-1.36-.8-9.33-.8-15.82,0-7.36.23-10.29,1.05-13.93.41-1.87.18-2.69-.74-2.56-.75.1-1.11.92-1.57,3.67-1,5.87-1.15,16.23-.33,25.57L36.12,48H33c-3.05,0-3.16,0-3.28-.59-.44-1.85-1.16-7.31-1.44-10.6-1-12.82,1.51-22,7.28-26.41A15.28,15.28,0,0,1,40.09,8c.13,0-.18.59-.66,1.31-.93,1.39-1.06,2-.57,2.49s1.23.33,1.69-.49A8.25,8.25,0,0,1,44,7.67L45.35,7l.13,6.47C45.58,19.23,45.66,19.92,46.07,20.18Zm21,32v2H26v-4.1H67Zm-2.31,4.28c0,.13-.82,6.59-1.85,14.36L61,85H32L30.14,70.91c-1-7.72-1.84-14.18-1.84-14.36s3.82-.31,18.21-.31C56.53,56.24,64.72,56.32,64.72,56.42Z" transform="translate(-21.88 -4.95)"/></svg>